# xmcd CD database file
#
# Track frame offsets:
#	150
#	15444
#	29721
#	51790
#	72713
#	90358
#	110129
#	132575
#	153572
#	166994
#	184619
#	199222
#
# Disc length: 2928 seconds
#
# Revision: 2
# Processed by: cddbd v1.5.2PL0 Copyright (c) Steve Scherf et al.
# Submitted via: CDex 1.51
#
DISCID=aa0b6e0c
DTITLE=Vivian Campbell - Two Sides Of If
DYEAR=2005
DGENRE=Blues
TTITLE0=Messin' With The Kid
TTITLE1=I'm Ready
TTITLE2=Calling Card
TTITLE3=Come On In My Kitchen
TTITLE4=The Hunter
TTITLE5=Like It This Way
TTITLE6=I Ain't Superstitious
TTITLE7=Spoonful
TTITLE8=Reconsider Baby
TTITLE9=Good Or Bad Times
TTITLE10=32/20 Blues
TTITLE11=Willin' For Satisfaction
EXTD=YEAR: 2005
EXTT0=
EXTT1=
EXTT2=
EXTT3=
EXTT4=
EXTT5=
EXTT6=
EXTT7=
EXTT8=
EXTT9=
EXTT10=
EXTT11=
PLAYORDER=
